# xmcd CD database file
#
# Track frame offsets:
#	150
#	18722
#	34357
#	53017
#	72547
#	91162
#	113079
#	127785
#	157642
#	173605
#	193407
#
# Disc length: 3192 seconds
#
# Revision: 1
# Processed by: cddbd v1.5PL3 Copyright (c) Steve Scherf et al.
# Submitted via: CDex 1.51
#
DISCID=8a0c760b
DTITLE=Jesse Cook - Free Fall
DYEAR=2000
DGENRE=New Age
TTITLE0=Switchback
TTITLE1=Air
TTITLE2=Virtue
TTITLE3=Free Fall
TTITLE4=Paloma
TTITLE5=Incantation
TTITLE6=All That Remains
TTITLE7=On Walks The Night
TTITLE8=Querido Amigo
TTITLE9=Viva
TTITLE10=Fall At Your Feet
EXTD=YEAR: 2000
EXTT0=
EXTT1=
EXTT2=
EXTT3=
EXTT4=
EXTT5=
EXTT6=
EXTT7=
EXTT8=
EXTT9=
EXTT10=
PLAYORDER=
